# xmcd CD database file generated by Grip 2.96
# 
# Track frame offsets:
#       182
#       20470
#       34315
#       47360
#       61490
#       73895
#       90407
#       102372
#       116937
#       130412
#       144662
#       162887
#       176797
#       188500
#       203652
#       217525
#       231837
#       245602
# 
# Disc length: 3422 seconds
# 
# Revision: 0
# Processed by: cddbd v1.4b42PL1 Copyright (c) Steve Scherf et al.
# Submitted via: Grip 2.96
# 
DISCID=fe0d5c12
DTITLE=Ella Fitzgerald - It's a Blue World
DYEAR=1900
DGENRE=
TTITLE0=Oh, Jonny
TTITLE1=I Want The Waiter With The Water
TTITLE2='Tain't What You Do
TTITLE3=Starlit Hour
TTITLE4=Sing Song Swing
TTITLE5=It's A Blue World
TTITLE6=Is There Somebody Else?
TTITLE7=Chewing Gum
TTITLE8=Sugar Blues
TTITLE9=Rock It For Me Baby
TTITLE10=Hallelujah
TTITLE11=My Heart Belongs To Daddy
TTITLE12=I'll Chase The Blues Away
TTITLE13=Love And Kisses
TTITLE14=Rhythm And Romance
TTITLE15=Crying My Heart Out For You
TTITLE16=Under The Spell Of the Blues
TTITLE17=When I Get Low I Get High
EXTD=
EXTT0=
EXTT1=
EXTT2=
EXTT3=
EXTT4=
EXTT5=
EXTT6=
EXTT7=
EXTT8=
EXTT9=
EXTT10=
EXTT11=
EXTT12=
EXTT13=
EXTT14=
EXTT15=
EXTT16=
EXTT17=
PLAYORDER=
